# xmcd
#
# Track frame offsets:
#       150
#       18718
#       30303
#       49323
#       64918
#       77796
#       98242
#       114608
#       131341
#       147640
#       164434
#       180926
#       193615
#       208716
#
# Disc length: 3063 seconds
#
# Revision: 2
# Processed by: cddbd v1.4PL0 Copyright (c) Steve Scherf et al.
# Submitted via: CD-DA_X-Tractor v0.23
#
DISCID=c60bf50e
DTITLE=Paprsky - O nadìji
DYEAR=2002
DGENRE=gospel
TTITLE0=Ty jsi nas
TTITLE1=Dlouho jiz
TTITLE2=O nadeji
TTITLE3=Laska v nas zustava
TTITLE4=Pri svitani
TTITLE5=Marii
TTITLE6=Zem zaslibena
TTITLE7=Tak jako driv
TTITLE8=Vyvysuji Tebe, Pane
TTITLE9=Kvety lasky
TTITLE10=Ze vsech stran
TTITLE11=Rekni sam
TTITLE12=Dva bratri
TTITLE13=Ruce
EXTD=
EXTT0=
EXTT1=
EXTT2=
EXTT3=
EXTT4=
EXTT5=
EXTT6=
EXTT7=
EXTT8=
EXTT9=
EXTT10=
EXTT11=
EXTT12=
EXTT13=
PLAYORDER=
